<svg width="55" height="55" viewBox="0 0 55 55" fill="none" xmlns="http://www.w3.org/2000/svg">
<path d="M27.501 51.6071L27.499 51.6071C22.6102 51.617 17.8377 50.1316 13.8203 47.3535C14.0525 44.1927 15.3743 41.2069 17.5647 38.9085C19.8185 36.5434 22.8435 35.0618 26.0937 34.7312C29.344 34.4005 32.6053 35.2426 35.2893 37.1053C36.5759 37.9984 37.8572 39.8142 38.9363 41.8758C39.9337 43.7811 40.724 45.8289 41.1658 47.393C37.1567 50.1374 32.3948 51.6168 27.501 51.6071ZM16.1918 36.1792C13.6007 38.5845 11.8518 41.7486 11.1872 45.2048C7.2643 41.5796 4.64969 36.7469 3.76921 31.4613C2.83937 25.8794 3.90278 20.1483 6.77323 15.2716C9.64368 10.3949 14.1382 6.68334 19.4698 4.78694C24.8013 2.89053 30.6301 2.93012 35.9354 4.89878C41.2407 6.86743 45.6844 10.6397 48.4883 15.5549C51.2922 20.4702 52.2777 26.2152 51.2721 31.7839C50.3128 37.0967 47.5995 41.926 43.5782 45.5058C43.0781 43.8241 42.3084 41.8907 41.3409 40.0912C40.2275 38.0203 38.8252 36.076 37.228 34.9158C34.1182 32.6567 30.3204 31.5476 26.4835 31.7781C22.6467 32.0085 19.0089 33.5642 16.1918 36.1792ZM27.5 0.5C22.1599 0.5 16.9397 2.08352 12.4996 5.05032C8.05949 8.01712 4.59883 12.2339 2.55526 17.1675C0.511698 22.1011 -0.0229915 27.5299 1.01881 32.7674C2.06061 38.0049 4.63211 42.8159 8.40813 46.5919C12.1841 50.3679 16.9951 52.9394 22.2326 53.9812C27.4701 55.023 32.8989 54.4883 37.8325 52.4447C42.7661 50.4012 46.9829 46.9405 49.9497 42.5004C52.9165 38.0603 54.5 32.8401 54.5 27.5C54.5 20.3391 51.6554 13.4716 46.5919 8.40811C41.5284 3.34463 34.6609 0.5 27.5 0.5Z" fill="white" stroke="white"/>
<path d="M27.5 10.5C25.5163 10.5 23.5794 11.1193 21.9344 12.2763C20.2898 13.4331 19.0117 15.0745 18.2579 16.9901C17.5041 18.9055 17.3073 21.0119 17.6912 23.0437C18.0752 25.0757 19.0235 26.9455 20.42 28.4154C21.8167 29.8857 23.5994 30.89 25.5442 31.2972C27.4892 31.7045 29.5049 31.4952 31.3353 30.6971C33.1654 29.8992 34.7254 28.5498 35.8211 26.8237C36.9167 25.0977 37.5 23.0712 37.5 21C37.5 18.2233 36.4523 15.5554 34.58 13.5846C32.7069 11.6128 30.1607 10.5 27.5 10.5ZM27.5 28.5C26.1016 28.5 24.7324 28.0636 23.5653 27.2428C22.3979 26.4217 21.4843 25.2518 20.9438 23.8784C20.4033 22.5047 20.2615 20.9919 20.5373 19.5321C20.8132 18.0724 21.4935 16.7349 22.4885 15.6875C23.4833 14.6404 24.7475 13.9304 26.1198 13.6431C27.4919 13.3558 28.9144 13.503 30.2086 14.0673C31.5031 14.6317 32.6138 15.5895 33.397 16.8234C34.1805 18.0576 34.6 19.5111 34.6 21C34.6 22.9972 33.8461 24.9077 32.5115 26.3125C31.1778 27.7164 29.3745 28.5 27.5 28.5Z" fill="white" stroke="white"/>
</svg>
