<svg width="53" height="53" viewBox="0 0 53 53" fill="none" xmlns="http://www.w3.org/2000/svg">
<g clip-path="url(#clip0_1_22)">
<path fill-rule="evenodd" clip-rule="evenodd" d="M26.5 0C19.4718 0 12.7314 2.79196 7.76167 7.76167C2.79196 12.7314 0 19.4718 0 26.5C0 33.5282 2.79196 40.2686 7.76167 45.2383C12.7314 50.208 19.4718 53 26.5 53C33.5282 53 40.2686 50.208 45.2383 45.2383C50.208 40.2686 53 33.5282 53 26.5C53 19.4718 50.208 12.7314 45.2383 7.76167C40.2686 2.79196 33.5282 0 26.5 0V0ZM36.835 12.2308C37.8481 12.2308 38.8592 12.6201 39.6216 13.3927C40.3554 14.1411 40.7664 15.1474 40.7664 16.1956C40.7664 17.2437 40.3554 18.25 39.6216 18.9985L34.3522 24.3413L39.4402 33.922C39.5426 34.1122 39.582 34.3299 39.5527 34.5439C39.5234 34.7578 39.4269 34.9569 39.2771 35.1125L35.5671 38.9346C35.4623 39.042 35.3351 39.125 35.1946 39.1776C35.054 39.2302 34.9036 39.2511 34.7541 39.2388C34.6045 39.2265 34.4595 39.1814 34.3295 39.1066C34.1994 39.0318 34.0874 38.9292 34.0015 38.8062L28.1919 30.5769L22.6351 36.2112L24.5207 39.646C24.6274 39.8388 24.6689 40.061 24.6387 40.2793C24.6086 40.4976 24.5085 40.7003 24.3535 40.8569L20.7352 44.5261C20.623 44.6407 20.4853 44.7271 20.3334 44.7784C20.1814 44.8297 20.0195 44.8444 19.8608 44.8214C19.7021 44.7984 19.5511 44.7382 19.42 44.6458C19.289 44.5534 19.1815 44.4314 19.1065 44.2897L15.5759 37.6993L8.67569 33.7345C8.5405 33.6567 8.42497 33.5489 8.33801 33.4194C8.25104 33.2899 8.19497 33.1421 8.17409 32.9875C8.15322 32.833 8.1681 32.6756 8.21761 32.5277C8.26711 32.3798 8.3499 32.2452 8.45962 32.1343L12.084 28.4549C12.2623 28.2763 12.5006 28.1703 12.7526 28.1573C12.958 28.146 13.1619 28.1972 13.3377 28.304L17.1557 30.6177C17.2132 30.4729 17.3032 30.3432 17.4187 30.2385L22.6351 24.9508L14.043 18.8354C13.9224 18.7497 13.8219 18.6387 13.7485 18.5103C13.6751 18.3818 13.6305 18.2389 13.6179 18.0915C13.6053 17.944 13.6249 17.7956 13.6754 17.6566C13.726 17.5175 13.8062 17.3911 13.9105 17.2862L17.702 13.4885C17.7979 13.3939 17.9116 13.3193 18.0365 13.2689C18.1614 13.2185 18.2951 13.1934 18.4297 13.195C18.5994 13.196 18.7662 13.2395 18.9149 13.3213L28.7403 18.7681L34.0484 13.3927C34.8108 12.6201 35.8239 12.2308 36.835 12.2308V12.2308ZM36.835 14.2448V14.2529C36.5855 14.2553 36.3391 14.3075 36.1101 14.4066C35.8811 14.5056 35.6743 14.6496 35.5018 14.8298L29.6494 20.7597L24.9283 25.544C24.9256 25.544 24.9229 25.544 24.9202 25.544L24.8957 25.5643L18.8619 31.6757C18.8079 31.7356 18.747 31.789 18.6805 31.8347L21.3712 34.5825L38.1682 17.5695C38.5321 17.2049 38.7366 16.7108 38.7366 16.1956C38.7366 15.6804 38.5321 15.1863 38.1682 14.8217C37.9957 14.6414 37.7889 14.4975 37.5599 14.3984C37.3309 14.2993 37.0845 14.2471 36.835 14.2448V14.2448ZM18.601 15.4801L16.2037 17.8773L24.0824 23.4872L26.288 21.255L27.2563 20.2705L18.601 15.478V15.4801ZM32.8498 25.862L29.6494 29.1072L34.9555 36.6332L37.2937 34.2197L32.8498 25.862ZM12.9667 30.4648L10.8365 32.6235L16.8458 36.0808C17.01 36.1746 17.1448 36.3122 17.2352 36.4783L20.2521 42.1085L22.368 39.9681L20.5518 36.6617L16.693 32.7214L12.9667 30.4628V30.4648Z" fill="white"/>
</g>
<defs>
<clipPath id="clip0_1_22">
<rect width="53" height="53" fill="white"/>
</clipPath>
</defs>
</svg>
